<?xml version="1.0" encoding="UTF-8" standalone="no"?>
<svg
   viewBox="0 0 16 16"
   xmlns="http://www.w3.org/2000/svg">
  <rect
     width="16"
     height="16"
     id="rect1"
     style="fill:#166323;" />
  <rect
     x="1"
     y="1"
     width="14"
     height="14"
     id="rect2"
     style="fill:#539349;" />
  <path
     d="m 11.423,7.810 q 0,1.513 -0.395,2.481 -0.395,0.968 -1.053,1.498 -0.657,0.530 -1.463,0.742 Q 7.704,12.738 6.891,12.738 H 4.501 V 2.981 h 2.227 q 0.890,0 1.725,0.190 0.841,0.190 1.506,0.707 0.671,0.509 1.067,1.463 0.395,0.947 0.395,2.467 z m -1.725,0 q 0,-1.166 -0.233,-1.873 Q 9.238,5.229 8.856,4.862 8.475,4.494 8.001,4.367 7.527,4.240 7.039,4.240 H 6.141 v 7.254 h 0.905 q 0.509,0 0.982,-0.162 0.473,-0.162 0.848,-0.565 0.381,-0.403 0.600,-1.117 0.219,-0.721 0.219,-1.838 z"
     id="text1"
     style="fill:#ffffff;" />
</svg>
